<svg width="448" height="448" viewBox="0 0 448 448" fill="none" xmlns="http://www.w3.org/2000/svg">
<circle cx="224" cy="224" r="224" fill="#F6DBDB"/>
<path d="M162.199 208.52V200.2H128.343V245H138.711V228.68H159.447V220.36H138.711V208.52H162.199ZM169.218 245H179.586V200.2H169.218V245ZM230.41 245L213.706 221.832L229.322 200.2H218.122L208.01 214.728L197.706 200.2H185.93L201.674 222.216L185.098 245H197.002L207.626 229.448L218.442 245H230.41ZM244.772 236.68V226.312H265.572V218.248H244.772V208.52H268.324V200.2H234.468V245H269.156V236.68H244.772ZM277.406 245H297.758C312.414 245 322.462 236.168 322.462 222.6C322.462 209.032 312.414 200.2 297.758 200.2H277.406V245ZM287.774 236.488V208.712H297.246C306.142 208.712 311.966 214.024 311.966 222.6C311.966 231.176 306.142 236.488 297.246 236.488H287.774Z" fill="black"/>
</svg>
